%TF.GenerationSoftware,KiCad,Pcbnew,(6.0.10-0)*%
%TF.CreationDate,2023-09-02T13:11:49+02:00*%
%TF.ProjectId,EPROM_FLASHER,4550524f-4d5f-4464-9c41-534845522e6b,rev?*%
%TF.SameCoordinates,Original*%
%TF.FileFunction,Soldermask,Top*%
%TF.FilePolarity,Negative*%
%FSLAX46Y46*%
G04 Gerber Fmt 4.6, Leading zero omitted, Abs format (unit mm)*
G04 Created by KiCad (PCBNEW (6.0.10-0)) date 2023-09-02 13:11:49*
%MOMM*%
%LPD*%
G01*
G04 APERTURE LIST*
%ADD10R,1.600000X1.600000*%
%ADD11O,1.600000X1.600000*%
%ADD12C,1.524000*%
%ADD13C,2.200000*%
%ADD14R,4.000000X4.000000*%
%ADD15C,1.600000*%
%ADD16R,1.700000X1.700000*%
%ADD17O,1.700000X1.700000*%
G04 APERTURE END LIST*
D10*
%TO.C,U4*%
X148532200Y-43414000D03*
D11*
X148532200Y-45954000D03*
X148532200Y-48494000D03*
X148532200Y-51034000D03*
X148532200Y-53574000D03*
X148532200Y-56114000D03*
X148532200Y-58654000D03*
X148532200Y-61194000D03*
X148532200Y-63734000D03*
X148532200Y-66274000D03*
X148532200Y-68814000D03*
X148532200Y-71354000D03*
X163772200Y-71354000D03*
X163772200Y-68814000D03*
X163772200Y-66274000D03*
X163772200Y-63734000D03*
X163772200Y-61194000D03*
X163772200Y-58654000D03*
X163772200Y-56114000D03*
X163772200Y-53574000D03*
X163772200Y-51034000D03*
X163772200Y-48494000D03*
X163772200Y-45954000D03*
X163772200Y-43414000D03*
%TD*%
D12*
%TO.C,SW3*%
X120904000Y-97028000D03*
X123444000Y-97028000D03*
X125984000Y-97028000D03*
%TD*%
D10*
%TO.C,U6*%
X109723000Y-38364000D03*
D11*
X109723000Y-40904000D03*
X109723000Y-43444000D03*
X109723000Y-45984000D03*
X109723000Y-48524000D03*
X109723000Y-51064000D03*
X109723000Y-53604000D03*
X109723000Y-56144000D03*
X109723000Y-58684000D03*
X109723000Y-61224000D03*
X109723000Y-63764000D03*
X109723000Y-66304000D03*
X109723000Y-68844000D03*
X109723000Y-71384000D03*
X124963000Y-71384000D03*
X124963000Y-68844000D03*
X124963000Y-66304000D03*
X124963000Y-63764000D03*
X124963000Y-61224000D03*
X124963000Y-58684000D03*
X124963000Y-56144000D03*
X124963000Y-53604000D03*
X124963000Y-51064000D03*
X124963000Y-48524000D03*
X124963000Y-45984000D03*
X124963000Y-43444000D03*
X124963000Y-40904000D03*
X124963000Y-38364000D03*
%TD*%
D13*
%TO.C,H2*%
X190800000Y-35560000D03*
%TD*%
%TO.C,H3*%
X190800000Y-105560000D03*
%TD*%
D14*
%TO.C,J2*%
X192024000Y-95250000D03*
%TD*%
D15*
%TO.C,C1*%
X115276000Y-81280000D03*
X110276000Y-81280000D03*
%TD*%
%TO.C,C2*%
X115276000Y-89408000D03*
X110276000Y-89408000D03*
%TD*%
D10*
%TO.C,A1*%
X99615800Y-85862000D03*
D11*
X97075800Y-85862000D03*
X94535800Y-85862000D03*
X91995800Y-85862000D03*
X89455800Y-85862000D03*
X86915800Y-85862000D03*
X84375800Y-85862000D03*
X81835800Y-85862000D03*
X79295800Y-85862000D03*
X76755800Y-85862000D03*
X74215800Y-85862000D03*
X71675800Y-85862000D03*
X69135800Y-85862000D03*
X66595800Y-85862000D03*
X64055800Y-85862000D03*
X64055800Y-101102000D03*
X66595800Y-101102000D03*
X69135800Y-101102000D03*
X71675800Y-101102000D03*
X74215800Y-101102000D03*
X76755800Y-101102000D03*
X79295800Y-101102000D03*
X81835800Y-101102000D03*
X84375800Y-101102000D03*
X86915800Y-101102000D03*
X89455800Y-101102000D03*
X91995800Y-101102000D03*
X94535800Y-101102000D03*
X97075800Y-101102000D03*
X99615800Y-101102000D03*
%TD*%
D10*
%TO.C,C4*%
X180340000Y-86231300D03*
D15*
X180340000Y-89731300D03*
%TD*%
D10*
%TO.C,U8*%
X70913800Y-38364000D03*
D11*
X70913800Y-40904000D03*
X70913800Y-43444000D03*
X70913800Y-45984000D03*
X70913800Y-48524000D03*
X70913800Y-51064000D03*
X70913800Y-53604000D03*
X70913800Y-56144000D03*
X70913800Y-58684000D03*
X70913800Y-61224000D03*
X70913800Y-63764000D03*
X70913800Y-66304000D03*
X70913800Y-68844000D03*
X70913800Y-71384000D03*
X86153800Y-71384000D03*
X86153800Y-68844000D03*
X86153800Y-66304000D03*
X86153800Y-63764000D03*
X86153800Y-61224000D03*
X86153800Y-58684000D03*
X86153800Y-56144000D03*
X86153800Y-53604000D03*
X86153800Y-51064000D03*
X86153800Y-48524000D03*
X86153800Y-45984000D03*
X86153800Y-43444000D03*
X86153800Y-40904000D03*
X86153800Y-38364000D03*
%TD*%
D13*
%TO.C,H4*%
X50800000Y-105560000D03*
%TD*%
%TO.C,H1*%
X50800000Y-35560000D03*
%TD*%
D16*
%TO.C,J3*%
X122978800Y-104245200D03*
D17*
X125518800Y-104245200D03*
%TD*%
D10*
%TO.C,U2*%
X129127600Y-38364000D03*
D11*
X129127600Y-40904000D03*
X129127600Y-43444000D03*
X129127600Y-45984000D03*
X129127600Y-48524000D03*
X129127600Y-51064000D03*
X129127600Y-53604000D03*
X129127600Y-56144000D03*
X129127600Y-58684000D03*
X129127600Y-61224000D03*
X129127600Y-63764000D03*
X129127600Y-66304000D03*
X129127600Y-68844000D03*
X129127600Y-71384000D03*
X144367600Y-71384000D03*
X144367600Y-68844000D03*
X144367600Y-66304000D03*
X144367600Y-63764000D03*
X144367600Y-61224000D03*
X144367600Y-58684000D03*
X144367600Y-56144000D03*
X144367600Y-53604000D03*
X144367600Y-51064000D03*
X144367600Y-48524000D03*
X144367600Y-45984000D03*
X144367600Y-43444000D03*
X144367600Y-40904000D03*
X144367600Y-38364000D03*
%TD*%
D10*
%TO.C,U3*%
X167936800Y-43414000D03*
D11*
X167936800Y-45954000D03*
X167936800Y-48494000D03*
X167936800Y-51034000D03*
X167936800Y-53574000D03*
X167936800Y-56114000D03*
X167936800Y-58654000D03*
X167936800Y-61194000D03*
X167936800Y-63734000D03*
X167936800Y-66274000D03*
X167936800Y-68814000D03*
X167936800Y-71354000D03*
X183176800Y-71354000D03*
X183176800Y-68814000D03*
X183176800Y-66274000D03*
X183176800Y-63734000D03*
X183176800Y-61194000D03*
X183176800Y-58654000D03*
X183176800Y-56114000D03*
X183176800Y-53574000D03*
X183176800Y-51034000D03*
X183176800Y-48494000D03*
X183176800Y-45954000D03*
X183176800Y-43414000D03*
%TD*%
D10*
%TO.C,U5*%
X58477800Y-63261000D03*
D11*
X58477800Y-65801000D03*
X58477800Y-68341000D03*
X58477800Y-70881000D03*
X58477800Y-73421000D03*
X58477800Y-75961000D03*
X58477800Y-78501000D03*
X58477800Y-81041000D03*
X66097800Y-81041000D03*
X66097800Y-78501000D03*
X66097800Y-75961000D03*
X66097800Y-73421000D03*
X66097800Y-70881000D03*
X66097800Y-68341000D03*
X66097800Y-65801000D03*
X66097800Y-63261000D03*
%TD*%
D10*
%TO.C,U7*%
X90318400Y-38364000D03*
D11*
X90318400Y-40904000D03*
X90318400Y-43444000D03*
X90318400Y-45984000D03*
X90318400Y-48524000D03*
X90318400Y-51064000D03*
X90318400Y-53604000D03*
X90318400Y-56144000D03*
X90318400Y-58684000D03*
X90318400Y-61224000D03*
X90318400Y-63764000D03*
X90318400Y-66304000D03*
X90318400Y-68844000D03*
X90318400Y-71384000D03*
X105558400Y-71384000D03*
X105558400Y-68844000D03*
X105558400Y-66304000D03*
X105558400Y-63764000D03*
X105558400Y-61224000D03*
X105558400Y-58684000D03*
X105558400Y-56144000D03*
X105558400Y-53604000D03*
X105558400Y-51064000D03*
X105558400Y-48524000D03*
X105558400Y-45984000D03*
X105558400Y-43444000D03*
X105558400Y-40904000D03*
X105558400Y-38364000D03*
%TD*%
D10*
%TO.C,U1*%
X58477800Y-40401000D03*
D11*
X58477800Y-42941000D03*
X58477800Y-45481000D03*
X58477800Y-48021000D03*
X58477800Y-50561000D03*
X58477800Y-53101000D03*
X58477800Y-55641000D03*
X58477800Y-58181000D03*
X66097800Y-58181000D03*
X66097800Y-55641000D03*
X66097800Y-53101000D03*
X66097800Y-50561000D03*
X66097800Y-48021000D03*
X66097800Y-45481000D03*
X66097800Y-42941000D03*
X66097800Y-40401000D03*
%TD*%
D12*
%TO.C,SW2*%
X120904000Y-89408000D03*
X123444000Y-89408000D03*
X125984000Y-89408000D03*
%TD*%
D15*
%TO.C,C3*%
X115316000Y-97028000D03*
X110316000Y-97028000D03*
%TD*%
D14*
%TO.C,J1*%
X192024000Y-80518000D03*
%TD*%
D12*
%TO.C,SW1*%
X120904000Y-81280000D03*
X123444000Y-81280000D03*
X125984000Y-81280000D03*
%TD*%
M02*
