M48
; DRILL file {KiCad (6.0.10-0)} date 2023 September 02, Saturday 13:11:51
; FORMAT={-:-/ absolute / metric / decimal}
; #@! TF.CreationDate,2023-09-02T13:11:51+02:00
; #@! TF.GenerationSoftware,Kicad,Pcbnew,(6.0.10-0)
; #@! TF.FileFunction,Plated,1,2,PTH
FMAT,2
METRIC
; #@! TA.AperFunction,Plated,PTH,ViaDrill
T1C0.400
; #@! TA.AperFunction,Plated,PTH,ComponentDrill
T2C0.762
; #@! TA.AperFunction,Plated,PTH,ComponentDrill
T3C0.800
; #@! TA.AperFunction,Plated,PTH,ComponentDrill
T4C1.000
%
G90
G05
T1
X62.291Y-46.896
X62.627Y-64.165
X64.768Y-72.058
X68.266Y-56.218
X69.021Y-58.594
X73.285Y-99.219
X100.727Y-84.494
X113.434Y-74.335
X150.064Y-57.961
X161.65Y-68.12
T2
X120.904Y-81.28
X120.904Y-89.408
X120.904Y-97.028
X123.444Y-81.28
X123.444Y-89.408
X123.444Y-97.028
X125.984Y-81.28
X125.984Y-89.408
X125.984Y-97.028
T3
X58.478Y-40.401
X58.478Y-42.941
X58.478Y-45.481
X58.478Y-48.021
X58.478Y-50.561
X58.478Y-53.101
X58.478Y-55.641
X58.478Y-58.181
X58.478Y-63.261
X58.478Y-65.801
X58.478Y-68.341
X58.478Y-70.881
X58.478Y-73.421
X58.478Y-75.961
X58.478Y-78.501
X58.478Y-81.041
X66.098Y-40.401
X66.098Y-42.941
X66.098Y-45.481
X66.098Y-48.021
X66.098Y-50.561
X66.098Y-53.101
X66.098Y-55.641
X66.098Y-58.181
X66.098Y-63.261
X66.098Y-65.801
X66.098Y-68.341
X66.098Y-70.881
X66.098Y-73.421
X66.098Y-75.961
X66.098Y-78.501
X66.098Y-81.041
X70.914Y-38.364
X70.914Y-40.904
X70.914Y-43.444
X70.914Y-45.984
X70.914Y-48.524
X70.914Y-51.064
X70.914Y-53.604
X70.914Y-56.144
X70.914Y-58.684
X70.914Y-61.224
X70.914Y-63.764
X70.914Y-66.304
X70.914Y-68.844
X70.914Y-71.384
X86.154Y-38.364
X86.154Y-40.904
X86.154Y-43.444
X86.154Y-45.984
X86.154Y-48.524
X86.154Y-51.064
X86.154Y-53.604
X86.154Y-56.144
X86.154Y-58.684
X86.154Y-61.224
X86.154Y-63.764
X86.154Y-66.304
X86.154Y-68.844
X86.154Y-71.384
X90.318Y-38.364
X90.318Y-40.904
X90.318Y-43.444
X90.318Y-45.984
X90.318Y-48.524
X90.318Y-51.064
X90.318Y-53.604
X90.318Y-56.144
X90.318Y-58.684
X90.318Y-61.224
X90.318Y-63.764
X90.318Y-66.304
X90.318Y-68.844
X90.318Y-71.384
X105.558Y-38.364
X105.558Y-40.904
X105.558Y-43.444
X105.558Y-45.984
X105.558Y-48.524
X105.558Y-51.064
X105.558Y-53.604
X105.558Y-56.144
X105.558Y-58.684
X105.558Y-61.224
X105.558Y-63.764
X105.558Y-66.304
X105.558Y-68.844
X105.558Y-71.384
X109.723Y-38.364
X109.723Y-40.904
X109.723Y-43.444
X109.723Y-45.984
X109.723Y-48.524
X109.723Y-51.064
X109.723Y-53.604
X109.723Y-56.144
X109.723Y-58.684
X109.723Y-61.224
X109.723Y-63.764
X109.723Y-66.304
X109.723Y-68.844
X109.723Y-71.384
X110.276Y-81.28
X110.276Y-89.408
X110.316Y-97.028
X115.276Y-81.28
X115.276Y-89.408
X115.316Y-97.028
X124.963Y-38.364
X124.963Y-40.904
X124.963Y-43.444
X124.963Y-45.984
X124.963Y-48.524
X124.963Y-51.064
X124.963Y-53.604
X124.963Y-56.144
X124.963Y-58.684
X124.963Y-61.224
X124.963Y-63.764
X124.963Y-66.304
X124.963Y-68.844
X124.963Y-71.384
X129.128Y-38.364
X129.128Y-40.904
X129.128Y-43.444
X129.128Y-45.984
X129.128Y-48.524
X129.128Y-51.064
X129.128Y-53.604
X129.128Y-56.144
X129.128Y-58.684
X129.128Y-61.224
X129.128Y-63.764
X129.128Y-66.304
X129.128Y-68.844
X129.128Y-71.384
X144.368Y-38.364
X144.368Y-40.904
X144.368Y-43.444
X144.368Y-45.984
X144.368Y-48.524
X144.368Y-51.064
X144.368Y-53.604
X144.368Y-56.144
X144.368Y-58.684
X144.368Y-61.224
X144.368Y-63.764
X144.368Y-66.304
X144.368Y-68.844
X144.368Y-71.384
X148.532Y-43.414
X148.532Y-45.954
X148.532Y-48.494
X148.532Y-51.034
X148.532Y-53.574
X148.532Y-56.114
X148.532Y-58.654
X148.532Y-61.194
X148.532Y-63.734
X148.532Y-66.274
X148.532Y-68.814
X148.532Y-71.354
X163.772Y-43.414
X163.772Y-45.954
X163.772Y-48.494
X163.772Y-51.034
X163.772Y-53.574
X163.772Y-56.114
X163.772Y-58.654
X163.772Y-61.194
X163.772Y-63.734
X163.772Y-66.274
X163.772Y-68.814
X163.772Y-71.354
X167.937Y-43.414
X167.937Y-45.954
X167.937Y-48.494
X167.937Y-51.034
X167.937Y-53.574
X167.937Y-56.114
X167.937Y-58.654
X167.937Y-61.194
X167.937Y-63.734
X167.937Y-66.274
X167.937Y-68.814
X167.937Y-71.354
X180.34Y-86.231
X180.34Y-89.731
X183.177Y-43.414
X183.177Y-45.954
X183.177Y-48.494
X183.177Y-51.034
X183.177Y-53.574
X183.177Y-56.114
X183.177Y-58.654
X183.177Y-61.194
X183.177Y-63.734
X183.177Y-66.274
X183.177Y-68.814
X183.177Y-71.354
T4
X64.056Y-85.862
X64.056Y-101.102
X66.596Y-85.862
X66.596Y-101.102
X69.136Y-85.862
X69.136Y-101.102
X71.676Y-85.862
X71.676Y-101.102
X74.216Y-85.862
X74.216Y-101.102
X76.756Y-85.862
X76.756Y-101.102
X79.296Y-85.862
X79.296Y-101.102
X81.836Y-85.862
X81.836Y-101.102
X84.376Y-85.862
X84.376Y-101.102
X86.916Y-85.862
X86.916Y-101.102
X89.456Y-85.862
X89.456Y-101.102
X91.996Y-85.862
X91.996Y-101.102
X94.536Y-85.862
X94.536Y-101.102
X97.076Y-85.862
X97.076Y-101.102
X99.616Y-85.862
X99.616Y-101.102
X122.979Y-104.245
X125.519Y-104.245
T0
M30
