%TF.GenerationSoftware,KiCad,Pcbnew,(6.0.10-0)*%
%TF.CreationDate,2023-09-02T13:11:49+02:00*%
%TF.ProjectId,EPROM_FLASHER,4550524f-4d5f-4464-9c41-534845522e6b,rev?*%
%TF.SameCoordinates,Original*%
%TF.FileFunction,Copper,L1,Top*%
%TF.FilePolarity,Positive*%
%FSLAX46Y46*%
G04 Gerber Fmt 4.6, Leading zero omitted, Abs format (unit mm)*
G04 Created by KiCad (PCBNEW (6.0.10-0)) date 2023-09-02 13:11:49*
%MOMM*%
%LPD*%
G01*
G04 APERTURE LIST*
%TA.AperFunction,ComponentPad*%
%ADD10R,1.600000X1.600000*%
%TD*%
%TA.AperFunction,ComponentPad*%
%ADD11O,1.600000X1.600000*%
%TD*%
%TA.AperFunction,ComponentPad*%
%ADD12C,1.524000*%
%TD*%
%TA.AperFunction,SMDPad,CuDef*%
%ADD13R,4.000000X4.000000*%
%TD*%
%TA.AperFunction,ComponentPad*%
%ADD14C,1.600000*%
%TD*%
%TA.AperFunction,ComponentPad*%
%ADD15R,1.700000X1.700000*%
%TD*%
%TA.AperFunction,ComponentPad*%
%ADD16O,1.700000X1.700000*%
%TD*%
%TA.AperFunction,ViaPad*%
%ADD17C,0.800000*%
%TD*%
%TA.AperFunction,Conductor*%
%ADD18C,0.250000*%
%TD*%
G04 APERTURE END LIST*
D10*
%TO.P,U4,1,A7*%
%TO.N,A_{7}*%
X148532200Y-43414000D03*
D11*
%TO.P,U4,2,A6*%
%TO.N,A_{6}*%
X148532200Y-45954000D03*
%TO.P,U4,3,A5*%
%TO.N,A_{5}*%
X148532200Y-48494000D03*
%TO.P,U4,4,A4*%
%TO.N,A_{4}*%
X148532200Y-51034000D03*
%TO.P,U4,5,A3*%
%TO.N,A_{3}*%
X148532200Y-53574000D03*
%TO.P,U4,6,A2*%
%TO.N,A_{2}*%
X148532200Y-56114000D03*
%TO.P,U4,7,A1*%
%TO.N,A_{1}*%
X148532200Y-58654000D03*
%TO.P,U4,8,A0*%
%TO.N,A_{0}*%
X148532200Y-61194000D03*
%TO.P,U4,9,D0*%
%TO.N,D_{0}*%
X148532200Y-63734000D03*
%TO.P,U4,10,D1*%
%TO.N,D_{1}*%
X148532200Y-66274000D03*
%TO.P,U4,11,D2*%
%TO.N,D_{2}*%
X148532200Y-68814000D03*
%TO.P,U4,12,GND*%
%TO.N,GND*%
X148532200Y-71354000D03*
%TO.P,U4,13,D3*%
%TO.N,D_{3}*%
X163772200Y-71354000D03*
%TO.P,U4,14,D4*%
%TO.N,D_{4}*%
X163772200Y-68814000D03*
%TO.P,U4,15,D5*%
%TO.N,D_{5}*%
X163772200Y-66274000D03*
%TO.P,U4,16,D6*%
%TO.N,D_{6}*%
X163772200Y-63734000D03*
%TO.P,U4,17,D7*%
%TO.N,D_{7}*%
X163772200Y-61194000D03*
%TO.P,U4,18,~{CE}*%
%TO.N,~{CE}*%
X163772200Y-58654000D03*
%TO.P,U4,19,A10*%
%TO.N,A_{10}*%
X163772200Y-56114000D03*
%TO.P,U4,20,~{OE}/V_{PP}*%
%TO.N,~{OE}{slash}V_{PP}*%
X163772200Y-53574000D03*
%TO.P,U4,21,A11*%
%TO.N,A_{11}*%
X163772200Y-51034000D03*
%TO.P,U4,22,A9*%
%TO.N,A_{9}*%
X163772200Y-48494000D03*
%TO.P,U4,23,A8*%
%TO.N,A_{8}*%
X163772200Y-45954000D03*
%TO.P,U4,24,VCC*%
%TO.N,V_{CC\u002C EPROM}*%
X163772200Y-43414000D03*
%TD*%
D12*
%TO.P,SW3,1,A*%
%TO.N,VCC*%
X120904000Y-97028000D03*
%TO.P,SW3,2,B*%
%TO.N,V_{CC\u002C EPROM}*%
X123444000Y-97028000D03*
%TO.P,SW3,3,C*%
%TO.N,V_{CC\u002CSUPPLY}*%
X125984000Y-97028000D03*
%TD*%
D10*
%TO.P,U6,1,VPP*%
%TO.N,V_{PP}*%
X109723000Y-38364000D03*
D11*
%TO.P,U6,2,A12*%
%TO.N,A_{12}*%
X109723000Y-40904000D03*
%TO.P,U6,3,A7*%
%TO.N,A_{7}*%
X109723000Y-43444000D03*
%TO.P,U6,4,A6*%
%TO.N,A_{6}*%
X109723000Y-45984000D03*
%TO.P,U6,5,A5*%
%TO.N,A_{5}*%
X109723000Y-48524000D03*
%TO.P,U6,6,A4*%
%TO.N,A_{4}*%
X109723000Y-51064000D03*
%TO.P,U6,7,A3*%
%TO.N,A_{3}*%
X109723000Y-53604000D03*
%TO.P,U6,8,A2*%
%TO.N,A_{2}*%
X109723000Y-56144000D03*
%TO.P,U6,9,A1*%
%TO.N,A_{1}*%
X109723000Y-58684000D03*
%TO.P,U6,10,A0*%
%TO.N,A_{0}*%
X109723000Y-61224000D03*
%TO.P,U6,11,D0*%
%TO.N,D_{0}*%
X109723000Y-63764000D03*
%TO.P,U6,12,D1*%
%TO.N,D_{1}*%
X109723000Y-66304000D03*
%TO.P,U6,13,D2*%
%TO.N,D_{2}*%
X109723000Y-68844000D03*
%TO.P,U6,14,GND*%
%TO.N,GND*%
X109723000Y-71384000D03*
%TO.P,U6,15,D3*%
%TO.N,D_{3}*%
X124963000Y-71384000D03*
%TO.P,U6,16,D4*%
%TO.N,D_{4}*%
X124963000Y-68844000D03*
%TO.P,U6,17,D5*%
%TO.N,D_{5}*%
X124963000Y-66304000D03*
%TO.P,U6,18,D6*%
%TO.N,D_{6}*%
X124963000Y-63764000D03*
%TO.P,U6,19,D7*%
%TO.N,D_{7}*%
X124963000Y-61224000D03*
%TO.P,U6,20,~{CE}*%
%TO.N,~{CE}*%
X124963000Y-58684000D03*
%TO.P,U6,21,A10*%
%TO.N,A_{10}*%
X124963000Y-56144000D03*
%TO.P,U6,22,~{OE}*%
%TO.N,~{OE}*%
X124963000Y-53604000D03*
%TO.P,U6,23,A11*%
%TO.N,A_{11}*%
X124963000Y-51064000D03*
%TO.P,U6,24,A9*%
%TO.N,A_{9}*%
X124963000Y-48524000D03*
%TO.P,U6,25,A8*%
%TO.N,A_{8}*%
X124963000Y-45984000D03*
%TO.P,U6,26,A13*%
%TO.N,A_{13}*%
X124963000Y-43444000D03*
%TO.P,U6,27,~{PGM}*%
%TO.N,~{PGM}*%
X124963000Y-40904000D03*
%TO.P,U6,28,VCC*%
%TO.N,V_{CC\u002C EPROM}*%
X124963000Y-38364000D03*
%TD*%
D13*
%TO.P,J2,1,Pin_1*%
%TO.N,GND*%
X192024000Y-95250000D03*
%TD*%
D14*
%TO.P,C1,1*%
%TO.N,V_{PP}*%
X115276000Y-81280000D03*
%TO.P,C1,2*%
%TO.N,GND*%
X110276000Y-81280000D03*
%TD*%
%TO.P,C2,1*%
%TO.N,~{OE}{slash}V_{PP}*%
X115276000Y-89408000D03*
%TO.P,C2,2*%
%TO.N,GND*%
X110276000Y-89408000D03*
%TD*%
D10*
%TO.P,A1,1,D1/TX*%
%TO.N,unconnected-(A1-Pad1)*%
X99615800Y-85862000D03*
D11*
%TO.P,A1,2,D0/RX*%
%TO.N,unconnected-(A1-Pad2)*%
X97075800Y-85862000D03*
%TO.P,A1,3,~{RESET}*%
%TO.N,unconnected-(A1-Pad3)*%
X94535800Y-85862000D03*
%TO.P,A1,4,GND*%
%TO.N,GND*%
X91995800Y-85862000D03*
%TO.P,A1,5,D2*%
%TO.N,~{SRCLR}*%
X89455800Y-85862000D03*
%TO.P,A1,6,D3*%
%TO.N,SRCLK*%
X86915800Y-85862000D03*
%TO.P,A1,7,D4*%
%TO.N,SERIAL*%
X84375800Y-85862000D03*
%TO.P,A1,8,D5*%
%TO.N,RCLK*%
X81835800Y-85862000D03*
%TO.P,A1,9,D6*%
%TO.N,D_{7}*%
X79295800Y-85862000D03*
%TO.P,A1,10,D7*%
%TO.N,D_{6}*%
X76755800Y-85862000D03*
%TO.P,A1,11,D8*%
%TO.N,D_{5}*%
X74215800Y-85862000D03*
%TO.P,A1,12,D9*%
%TO.N,D_{4}*%
X71675800Y-85862000D03*
%TO.P,A1,13,D10*%
%TO.N,D_{3}*%
X69135800Y-85862000D03*
%TO.P,A1,14,D11*%
%TO.N,D_{2}*%
X66595800Y-85862000D03*
%TO.P,A1,15,D12*%
%TO.N,D_{1}*%
X64055800Y-85862000D03*
%TO.P,A1,16,D13*%
%TO.N,D_{0}*%
X64055800Y-101102000D03*
%TO.P,A1,17,3V3*%
%TO.N,unconnected-(A1-Pad17)*%
X66595800Y-101102000D03*
%TO.P,A1,18,AREF*%
%TO.N,unconnected-(A1-Pad18)*%
X69135800Y-101102000D03*
%TO.P,A1,19,A0*%
%TO.N,~{CE}*%
X71675800Y-101102000D03*
%TO.P,A1,20,A1*%
%TO.N,~{PGM}*%
X74215800Y-101102000D03*
%TO.P,A1,21,A2*%
%TO.N,~{OE}*%
X76755800Y-101102000D03*
%TO.P,A1,22,A3*%
%TO.N,unconnected-(A1-Pad22)*%
X79295800Y-101102000D03*
%TO.P,A1,23,A4*%
%TO.N,unconnected-(A1-Pad23)*%
X81835800Y-101102000D03*
%TO.P,A1,24,A5*%
%TO.N,unconnected-(A1-Pad24)*%
X84375800Y-101102000D03*
%TO.P,A1,25,A6*%
%TO.N,unconnected-(A1-Pad25)*%
X86915800Y-101102000D03*
%TO.P,A1,26,A7*%
%TO.N,unconnected-(A1-Pad26)*%
X89455800Y-101102000D03*
%TO.P,A1,27,+5V*%
%TO.N,VCC*%
X91995800Y-101102000D03*
%TO.P,A1,28,~{RESET}*%
%TO.N,unconnected-(A1-Pad28)*%
X94535800Y-101102000D03*
%TO.P,A1,29,GND*%
%TO.N,GND*%
X97075800Y-101102000D03*
%TO.P,A1,30,VIN*%
%TO.N,unconnected-(A1-Pad30)*%
X99615800Y-101102000D03*
%TD*%
D10*
%TO.P,C4,1*%
%TO.N,V_{PP\u002CSUPPLY}*%
X180340000Y-86231300D03*
D14*
%TO.P,C4,2*%
%TO.N,GND*%
X180340000Y-89731300D03*
%TD*%
D10*
%TO.P,U8,1,A15*%
%TO.N,A_{15}*%
X70913800Y-38364000D03*
D11*
%TO.P,U8,2,A12*%
%TO.N,A_{12}*%
X70913800Y-40904000D03*
%TO.P,U8,3,A7*%
%TO.N,A_{7}*%
X70913800Y-43444000D03*
%TO.P,U8,4,A6*%
%TO.N,A_{6}*%
X70913800Y-45984000D03*
%TO.P,U8,5,A5*%
%TO.N,A_{5}*%
X70913800Y-48524000D03*
%TO.P,U8,6,A4*%
%TO.N,A_{4}*%
X70913800Y-51064000D03*
%TO.P,U8,7,A3*%
%TO.N,A_{3}*%
X70913800Y-53604000D03*
%TO.P,U8,8,A2*%
%TO.N,A_{2}*%
X70913800Y-56144000D03*
%TO.P,U8,9,A1*%
%TO.N,A_{1}*%
X70913800Y-58684000D03*
%TO.P,U8,10,A0*%
%TO.N,A_{0}*%
X70913800Y-61224000D03*
%TO.P,U8,11,D0*%
%TO.N,D_{0}*%
X70913800Y-63764000D03*
%TO.P,U8,12,D1*%
%TO.N,D_{1}*%
X70913800Y-66304000D03*
%TO.P,U8,13,D2*%
%TO.N,D_{2}*%
X70913800Y-68844000D03*
%TO.P,U8,14,GND*%
%TO.N,GND*%
X70913800Y-71384000D03*
%TO.P,U8,15,D3*%
%TO.N,D_{3}*%
X86153800Y-71384000D03*
%TO.P,U8,16,D4*%
%TO.N,D_{4}*%
X86153800Y-68844000D03*
%TO.P,U8,17,D5*%
%TO.N,D_{5}*%
X86153800Y-66304000D03*
%TO.P,U8,18,D6*%
%TO.N,D_{6}*%
X86153800Y-63764000D03*
%TO.P,U8,19,D7*%
%TO.N,D_{7}*%
X86153800Y-61224000D03*
%TO.P,U8,20,~{CE}*%
%TO.N,~{CE}*%
X86153800Y-58684000D03*
%TO.P,U8,21,A10*%
%TO.N,A_{10}*%
X86153800Y-56144000D03*
%TO.P,U8,22,~{OE}*%
%TO.N,~{OE}{slash}V_{PP}*%
X86153800Y-53604000D03*
%TO.P,U8,23,A11*%
%TO.N,A_{11}*%
X86153800Y-51064000D03*
%TO.P,U8,24,A9*%
%TO.N,A_{9}*%
X86153800Y-48524000D03*
%TO.P,U8,25,A8*%
%TO.N,A_{8}*%
X86153800Y-45984000D03*
%TO.P,U8,26,A13*%
%TO.N,A_{13}*%
X86153800Y-43444000D03*
%TO.P,U8,27,A14*%
%TO.N,A_{14}*%
X86153800Y-40904000D03*
%TO.P,U8,28,VCC*%
%TO.N,V_{CC\u002C EPROM}*%
X86153800Y-38364000D03*
%TD*%
D15*
%TO.P,J3,1,Pin_1*%
%TO.N,GND*%
X122978800Y-104245200D03*
D16*
%TO.P,J3,2,Pin_2*%
%TO.N,V_{CC\u002CSUPPLY}*%
X125518800Y-104245200D03*
%TD*%
D10*
%TO.P,U2,1,VPP*%
%TO.N,V_{PP}*%
X129127600Y-38364000D03*
D11*
%TO.P,U2,2,A12*%
%TO.N,A_{12}*%
X129127600Y-40904000D03*
%TO.P,U2,3,A7*%
%TO.N,A_{7}*%
X129127600Y-43444000D03*
%TO.P,U2,4,A6*%
%TO.N,A_{6}*%
X129127600Y-45984000D03*
%TO.P,U2,5,A5*%
%TO.N,A_{5}*%
X129127600Y-48524000D03*
%TO.P,U2,6,A4*%
%TO.N,A_{4}*%
X129127600Y-51064000D03*
%TO.P,U2,7,A3*%
%TO.N,A_{3}*%
X129127600Y-53604000D03*
%TO.P,U2,8,A2*%
%TO.N,A_{2}*%
X129127600Y-56144000D03*
%TO.P,U2,9,A1*%
%TO.N,A_{1}*%
X129127600Y-58684000D03*
%TO.P,U2,10,A0*%
%TO.N,A_{0}*%
X129127600Y-61224000D03*
%TO.P,U2,11,D0*%
%TO.N,D_{0}*%
X129127600Y-63764000D03*
%TO.P,U2,12,D1*%
%TO.N,D_{1}*%
X129127600Y-66304000D03*
%TO.P,U2,13,D2*%
%TO.N,D_{2}*%
X129127600Y-68844000D03*
%TO.P,U2,14,GND*%
%TO.N,GND*%
X129127600Y-71384000D03*
%TO.P,U2,15,D3*%
%TO.N,D_{3}*%
X144367600Y-71384000D03*
%TO.P,U2,16,D4*%
%TO.N,D_{4}*%
X144367600Y-68844000D03*
%TO.P,U2,17,D5*%
%TO.N,D_{5}*%
X144367600Y-66304000D03*
%TO.P,U2,18,D6*%
%TO.N,D_{6}*%
X144367600Y-63764000D03*
%TO.P,U2,19,D7*%
%TO.N,D_{7}*%
X144367600Y-61224000D03*
%TO.P,U2,20,~{CE}*%
%TO.N,~{CE}*%
X144367600Y-58684000D03*
%TO.P,U2,21,A10*%
%TO.N,A_{10}*%
X144367600Y-56144000D03*
%TO.P,U2,22,~{OE}*%
%TO.N,~{OE}*%
X144367600Y-53604000D03*
%TO.P,U2,23,A11*%
%TO.N,A_{11}*%
X144367600Y-51064000D03*
%TO.P,U2,24,A9*%
%TO.N,A_{9}*%
X144367600Y-48524000D03*
%TO.P,U2,25,A8*%
%TO.N,A_{8}*%
X144367600Y-45984000D03*
%TO.P,U2,26,NC*%
%TO.N,unconnected-(U2-Pad26)*%
X144367600Y-43444000D03*
%TO.P,U2,27,~{PGM}*%
%TO.N,~{PGM}*%
X144367600Y-40904000D03*
%TO.P,U2,28,VCC*%
%TO.N,V_{CC\u002C EPROM}*%
X144367600Y-38364000D03*
%TD*%
D10*
%TO.P,U3,1,A7*%
%TO.N,A_{7}*%
X167936800Y-43414000D03*
D11*
%TO.P,U3,2,A6*%
%TO.N,A_{6}*%
X167936800Y-45954000D03*
%TO.P,U3,3,A5*%
%TO.N,A_{5}*%
X167936800Y-48494000D03*
%TO.P,U3,4,A4*%
%TO.N,A_{4}*%
X167936800Y-51034000D03*
%TO.P,U3,5,A3*%
%TO.N,A_{3}*%
X167936800Y-53574000D03*
%TO.P,U3,6,A2*%
%TO.N,A_{2}*%
X167936800Y-56114000D03*
%TO.P,U3,7,A1*%
%TO.N,A_{1}*%
X167936800Y-58654000D03*
%TO.P,U3,8,A0*%
%TO.N,A_{0}*%
X167936800Y-61194000D03*
%TO.P,U3,9,D0*%
%TO.N,D_{0}*%
X167936800Y-63734000D03*
%TO.P,U3,10,D1*%
%TO.N,D_{1}*%
X167936800Y-66274000D03*
%TO.P,U3,11,D2*%
%TO.N,D_{2}*%
X167936800Y-68814000D03*
%TO.P,U3,12,GND*%
%TO.N,GND*%
X167936800Y-71354000D03*
%TO.P,U3,13,D3*%
%TO.N,D_{3}*%
X183176800Y-71354000D03*
%TO.P,U3,14,D4*%
%TO.N,D_{4}*%
X183176800Y-68814000D03*
%TO.P,U3,15,D5*%
%TO.N,D_{5}*%
X183176800Y-66274000D03*
%TO.P,U3,16,D6*%
%TO.N,D_{6}*%
X183176800Y-63734000D03*
%TO.P,U3,17,D7*%
%TO.N,D_{7}*%
X183176800Y-61194000D03*
%TO.P,U3,18,~{CE}*%
%TO.N,~{CE}*%
X183176800Y-58654000D03*
%TO.P,U3,19,A10*%
%TO.N,A_{10}*%
X183176800Y-56114000D03*
%TO.P,U3,20,~{OE}*%
%TO.N,~{OE}*%
X183176800Y-53574000D03*
%TO.P,U3,21,V_{PP}*%
%TO.N,V_{PP}*%
X183176800Y-51034000D03*
%TO.P,U3,22,A9*%
%TO.N,A_{9}*%
X183176800Y-48494000D03*
%TO.P,U3,23,A8*%
%TO.N,A_{8}*%
X183176800Y-45954000D03*
%TO.P,U3,24,VCC*%
%TO.N,V_{CC\u002C EPROM}*%
X183176800Y-43414000D03*
%TD*%
D10*
%TO.P,U5,1,QB*%
%TO.N,A_{6}*%
X58477800Y-63261000D03*
D11*
%TO.P,U5,2,QC*%
%TO.N,A_{5}*%
X58477800Y-65801000D03*
%TO.P,U5,3,QD*%
%TO.N,A_{4}*%
X58477800Y-68341000D03*
%TO.P,U5,4,QE*%
%TO.N,A_{3}*%
X58477800Y-70881000D03*
%TO.P,U5,5,QF*%
%TO.N,A_{2}*%
X58477800Y-73421000D03*
%TO.P,U5,6,QG*%
%TO.N,A_{1}*%
X58477800Y-75961000D03*
%TO.P,U5,7,QH*%
%TO.N,A_{0}*%
X58477800Y-78501000D03*
%TO.P,U5,8,GND*%
%TO.N,GND*%
X58477800Y-81041000D03*
%TO.P,U5,9,QH'*%
%TO.N,unconnected-(U5-Pad9)*%
X66097800Y-81041000D03*
%TO.P,U5,10,~{SRCLR}*%
%TO.N,~{SRCLR}*%
X66097800Y-78501000D03*
%TO.P,U5,11,SRCLK*%
%TO.N,SRCLK*%
X66097800Y-75961000D03*
%TO.P,U5,12,RCLK*%
%TO.N,RCLK*%
X66097800Y-73421000D03*
%TO.P,U5,13,~{OE}*%
%TO.N,GND*%
X66097800Y-70881000D03*
%TO.P,U5,14,SER*%
%TO.N,Net-(U1-Pad9)*%
X66097800Y-68341000D03*
%TO.P,U5,15,QA*%
%TO.N,A_{7}*%
X66097800Y-65801000D03*
%TO.P,U5,16,VCC*%
%TO.N,VCC*%
X66097800Y-63261000D03*
%TD*%
D10*
%TO.P,U7,1,VPP*%
%TO.N,V_{PP}*%
X90318400Y-38364000D03*
D11*
%TO.P,U7,2,A12*%
%TO.N,A_{12}*%
X90318400Y-40904000D03*
%TO.P,U7,3,A7*%
%TO.N,A_{7}*%
X90318400Y-43444000D03*
%TO.P,U7,4,A6*%
%TO.N,A_{6}*%
X90318400Y-45984000D03*
%TO.P,U7,5,A5*%
%TO.N,A_{5}*%
X90318400Y-48524000D03*
%TO.P,U7,6,A4*%
%TO.N,A_{4}*%
X90318400Y-51064000D03*
%TO.P,U7,7,A3*%
%TO.N,A_{3}*%
X90318400Y-53604000D03*
%TO.P,U7,8,A2*%
%TO.N,A_{2}*%
X90318400Y-56144000D03*
%TO.P,U7,9,A1*%
%TO.N,A_{1}*%
X90318400Y-58684000D03*
%TO.P,U7,10,A0*%
%TO.N,A_{0}*%
X90318400Y-61224000D03*
%TO.P,U7,11,D0*%
%TO.N,D_{0}*%
X90318400Y-63764000D03*
%TO.P,U7,12,D1*%
%TO.N,D_{1}*%
X90318400Y-66304000D03*
%TO.P,U7,13,D2*%
%TO.N,D_{2}*%
X90318400Y-68844000D03*
%TO.P,U7,14,GND*%
%TO.N,GND*%
X90318400Y-71384000D03*
%TO.P,U7,15,D3*%
%TO.N,D_{3}*%
X105558400Y-71384000D03*
%TO.P,U7,16,D4*%
%TO.N,D_{4}*%
X105558400Y-68844000D03*
%TO.P,U7,17,D5*%
%TO.N,D_{5}*%
X105558400Y-66304000D03*
%TO.P,U7,18,D6*%
%TO.N,D_{6}*%
X105558400Y-63764000D03*
%TO.P,U7,19,D7*%
%TO.N,D_{7}*%
X105558400Y-61224000D03*
%TO.P,U7,20,~{CE}*%
%TO.N,~{CE}*%
X105558400Y-58684000D03*
%TO.P,U7,21,A10*%
%TO.N,A_{10}*%
X105558400Y-56144000D03*
%TO.P,U7,22,~{OE}*%
%TO.N,~{OE}*%
X105558400Y-53604000D03*
%TO.P,U7,23,A11*%
%TO.N,A_{11}*%
X105558400Y-51064000D03*
%TO.P,U7,24,A9*%
%TO.N,A_{9}*%
X105558400Y-48524000D03*
%TO.P,U7,25,A8*%
%TO.N,A_{8}*%
X105558400Y-45984000D03*
%TO.P,U7,26,A13*%
%TO.N,A_{13}*%
X105558400Y-43444000D03*
%TO.P,U7,27,A14*%
%TO.N,A_{14}*%
X105558400Y-40904000D03*
%TO.P,U7,28,VCC*%
%TO.N,V_{CC\u002C EPROM}*%
X105558400Y-38364000D03*
%TD*%
D10*
%TO.P,U1,1,QB*%
%TO.N,A_{14}*%
X58477800Y-40401000D03*
D11*
%TO.P,U1,2,QC*%
%TO.N,A_{13}*%
X58477800Y-42941000D03*
%TO.P,U1,3,QD*%
%TO.N,A_{12}*%
X58477800Y-45481000D03*
%TO.P,U1,4,QE*%
%TO.N,A_{11}*%
X58477800Y-48021000D03*
%TO.P,U1,5,QF*%
%TO.N,A_{10}*%
X58477800Y-50561000D03*
%TO.P,U1,6,QG*%
%TO.N,A_{9}*%
X58477800Y-53101000D03*
%TO.P,U1,7,QH*%
%TO.N,A_{8}*%
X58477800Y-55641000D03*
%TO.P,U1,8,GND*%
%TO.N,GND*%
X58477800Y-58181000D03*
%TO.P,U1,9,QH'*%
%TO.N,Net-(U1-Pad9)*%
X66097800Y-58181000D03*
%TO.P,U1,10,~{SRCLR}*%
%TO.N,~{SRCLR}*%
X66097800Y-55641000D03*
%TO.P,U1,11,SRCLK*%
%TO.N,SRCLK*%
X66097800Y-53101000D03*
%TO.P,U1,12,RCLK*%
%TO.N,RCLK*%
X66097800Y-50561000D03*
%TO.P,U1,13,~{OE}*%
%TO.N,GND*%
X66097800Y-48021000D03*
%TO.P,U1,14,SER*%
%TO.N,SERIAL*%
X66097800Y-45481000D03*
%TO.P,U1,15,QA*%
%TO.N,A_{15}*%
X66097800Y-42941000D03*
%TO.P,U1,16,VCC*%
%TO.N,VCC*%
X66097800Y-40401000D03*
%TD*%
D12*
%TO.P,SW2,1,A*%
%TO.N,GND*%
X120904000Y-89408000D03*
%TO.P,SW2,2,B*%
%TO.N,~{OE}{slash}V_{PP}*%
X123444000Y-89408000D03*
%TO.P,SW2,3,C*%
%TO.N,V_{PP\u002CSUPPLY}*%
X125984000Y-89408000D03*
%TD*%
D14*
%TO.P,C3,1*%
%TO.N,V_{CC\u002C EPROM}*%
X115316000Y-97028000D03*
%TO.P,C3,2*%
%TO.N,GND*%
X110316000Y-97028000D03*
%TD*%
D13*
%TO.P,J1,1,Pin_1*%
%TO.N,V_{PP\u002CSUPPLY}*%
X192024000Y-80518000D03*
%TD*%
D12*
%TO.P,SW1,1,A*%
%TO.N,VCC*%
X120904000Y-81280000D03*
%TO.P,SW1,2,B*%
%TO.N,V_{PP}*%
X123444000Y-81280000D03*
%TO.P,SW1,3,C*%
%TO.N,V_{PP\u002CSUPPLY}*%
X125984000Y-81280000D03*
%TD*%
D17*
%TO.N,RCLK*%
X64768400Y-72058500D03*
%TO.N,D_{2}*%
X161650000Y-68119700D03*
%TO.N,~{CE}*%
X150064000Y-57961300D03*
X73284900Y-99218700D03*
%TO.N,~{PGM}*%
X113434000Y-74335200D03*
%TO.N,~{OE}{slash}V_{PP}*%
X100726800Y-84494100D03*
%TO.N,A_{9}*%
X62291000Y-46895800D03*
%TO.N,A_{4}*%
X68265900Y-56217700D03*
%TO.N,A_{3}*%
X69020700Y-58594200D03*
%TO.N,A_{2}*%
X62626900Y-64164500D03*
%TD*%
D18*
%TO.N,GND*%
X70922900Y-70249800D02*
X69788700Y-71384000D01*
X109723000Y-71384000D02*
X110848000Y-71384000D01*
X58477800Y-79915900D02*
X58477800Y-81041000D01*
X110276000Y-89408000D02*
X111456600Y-90588600D01*
X58004600Y-46895600D02*
X57352600Y-47547600D01*
X69285700Y-70881000D02*
X66097800Y-70881000D01*
X167936800Y-71354000D02*
X167937000Y-71354000D01*
X148532200Y-71354000D02*
X149657000Y-71354000D01*
X58285100Y-57055900D02*
X58477800Y-57055900D01*
X126877000Y-72509200D02*
X128002000Y-71384000D01*
X66097800Y-70881000D02*
X64879600Y-70881000D01*
X148532000Y-71354000D02*
X148532200Y-71354000D01*
X184180000Y-89731300D02*
X189699000Y-95250000D01*
X119723400Y-90588600D02*
X120904000Y-89408000D01*
X64879600Y-70881000D02*
X63317400Y-72443200D01*
X102041700Y-97028000D02*
X98200900Y-100868800D01*
X63317400Y-75309400D02*
X58710900Y-79915900D01*
X90318400Y-71384000D02*
X89193300Y-71384000D01*
X66097800Y-48021000D02*
X62390800Y-48021000D01*
X63317400Y-72443200D02*
X63317400Y-75309400D01*
X88059100Y-70249800D02*
X70922900Y-70249800D01*
X129127600Y-71384000D02*
X129128000Y-71384000D01*
X165677000Y-70219600D02*
X166812000Y-71354000D01*
X110848000Y-71384000D02*
X111973000Y-72509200D01*
X62390800Y-48021000D02*
X61265400Y-46895600D01*
X189699000Y-95250000D02*
X192024000Y-95250000D01*
X149657000Y-71354000D02*
X150792000Y-70219600D01*
X110316000Y-97028000D02*
X102041700Y-97028000D01*
X61265400Y-46895600D02*
X58004600Y-46895600D01*
X111973000Y-72509200D02*
X126877000Y-72509200D01*
X180340000Y-89731300D02*
X184180000Y-89731300D01*
X57352600Y-47547600D02*
X57352600Y-56123400D01*
X58710900Y-79915900D02*
X58477800Y-79915900D01*
X111456600Y-90588600D02*
X119723400Y-90588600D01*
X69788700Y-71384000D02*
X69285700Y-70881000D01*
X70913800Y-71384000D02*
X69788700Y-71384000D01*
X58477800Y-57055900D02*
X58477800Y-58181000D01*
X150792000Y-70219600D02*
X165677000Y-70219600D01*
X89193300Y-71384000D02*
X88059100Y-70249800D01*
X97075800Y-101102000D02*
X98200900Y-101102000D01*
X98200900Y-100868800D02*
X98200900Y-101102000D01*
X57352600Y-56123400D02*
X58285100Y-57055900D01*
X128002000Y-71384000D02*
X129127600Y-71384000D01*
X166812000Y-71354000D02*
X167936800Y-71354000D01*
%TO.N,~{SRCLR}*%
X73584900Y-78501000D02*
X66097800Y-78501000D01*
X80565800Y-86241300D02*
X80565800Y-85481900D01*
X80565800Y-85481900D02*
X73584900Y-78501000D01*
X89455800Y-85862000D02*
X88330700Y-85862000D01*
X87479300Y-86994700D02*
X81319200Y-86994700D01*
X81319200Y-86994700D02*
X80565800Y-86241300D01*
X88330700Y-86143300D02*
X87479300Y-86994700D01*
X88330700Y-85862000D02*
X88330700Y-86143300D01*
%TO.N,SRCLK*%
X85790700Y-85862000D02*
X85790700Y-85580700D01*
X86915800Y-85862000D02*
X85790700Y-85862000D01*
X76171000Y-75961000D02*
X66097800Y-75961000D01*
X85790700Y-85580700D02*
X76171000Y-75961000D01*
%TO.N,RCLK*%
X73204800Y-77231000D02*
X65736200Y-77231000D01*
X81835800Y-85862000D02*
X73204800Y-77231000D01*
X64946300Y-76441100D02*
X64946300Y-75464400D01*
X64768400Y-72654100D02*
X64768400Y-72058500D01*
X66097800Y-73421000D02*
X66097800Y-73983500D01*
X64946300Y-75464400D02*
X65864600Y-74546100D01*
X66097800Y-74546100D02*
X66097800Y-73983500D01*
X66097800Y-73983500D02*
X64768400Y-72654100D01*
X65864600Y-74546100D02*
X66097800Y-74546100D01*
X65736200Y-77231000D02*
X64946300Y-76441100D01*
%TO.N,D_{7}*%
X106684000Y-61224000D02*
X107861000Y-60046700D01*
X112121000Y-61224000D02*
X124963000Y-61224000D01*
X146661000Y-60056100D02*
X150741000Y-60056100D01*
X144367600Y-61224000D02*
X145493000Y-61224000D01*
X182052000Y-61194000D02*
X183176800Y-61194000D01*
X88469500Y-60033400D02*
X103243000Y-60033400D01*
X87278900Y-61224000D02*
X88469500Y-60033400D01*
X180902000Y-60044500D02*
X182052000Y-61194000D01*
X105558400Y-61224000D02*
X106684000Y-61224000D01*
X163772200Y-61194000D02*
X165402000Y-61194000D01*
X127224000Y-60087900D02*
X142106000Y-60087900D01*
X145493000Y-61224000D02*
X146661000Y-60056100D01*
X110944000Y-60046700D02*
X112121000Y-61224000D01*
X165402000Y-61194000D02*
X166551000Y-60044500D01*
X86153800Y-61224000D02*
X87278900Y-61224000D01*
X103243000Y-60033400D02*
X104433000Y-61224000D01*
X107861000Y-60046700D02*
X110944000Y-60046700D01*
X150741000Y-60056100D02*
X151879000Y-61194000D01*
X142106000Y-60087900D02*
X143242000Y-61224000D01*
X143242000Y-61224000D02*
X144367600Y-61224000D01*
X183176800Y-61194000D02*
X183177000Y-61194000D01*
X166551000Y-60044500D02*
X180902000Y-60044500D01*
X124963000Y-61224000D02*
X126088000Y-61224000D01*
X151879000Y-61194000D02*
X163772200Y-61194000D01*
X126088000Y-61224000D02*
X127224000Y-60087900D01*
X104433000Y-61224000D02*
X105558400Y-61224000D01*
%TO.N,D_{6}*%
X123838000Y-63763900D02*
X111485000Y-63763900D01*
X108314000Y-62637400D02*
X107188000Y-63764000D01*
X111485000Y-63763900D02*
X110358000Y-62637400D01*
X145493000Y-63764000D02*
X146661000Y-62596100D01*
X104433000Y-63763900D02*
X92080100Y-63763900D01*
X110358000Y-62637400D02*
X108314000Y-62637400D01*
X151879000Y-63734000D02*
X163772000Y-63734000D01*
X146661000Y-62596100D02*
X150741000Y-62596100D01*
X142052000Y-62573400D02*
X143242000Y-63764000D01*
X124963000Y-63764000D02*
X126088000Y-63764000D01*
X88909900Y-62637400D02*
X87783300Y-63764000D01*
X150741000Y-62596100D02*
X151879000Y-63734000D01*
X92080100Y-63763900D02*
X90953600Y-62637400D01*
X124963000Y-63764000D02*
X123838000Y-63764000D01*
X163772200Y-63734000D02*
X163772000Y-63734000D01*
X127279000Y-62573400D02*
X142052000Y-62573400D01*
X123838000Y-63764000D02*
X123838000Y-63763900D01*
X126088000Y-63764000D02*
X127279000Y-62573400D01*
X90953600Y-62637400D02*
X88909900Y-62637400D01*
X107188000Y-63764000D02*
X105558400Y-63764000D01*
X104433000Y-63764000D02*
X104433000Y-63763900D01*
X87783300Y-63764000D02*
X86153800Y-63764000D01*
X105558400Y-63764000D02*
X104433000Y-63764000D01*
X143242000Y-63764000D02*
X144367600Y-63764000D01*
X144367600Y-63764000D02*
X145493000Y-63764000D01*
%TO.N,D_{5}*%
X107188000Y-66304000D02*
X108314000Y-65177400D01*
X88962200Y-65125100D02*
X92486400Y-65125100D01*
X150741000Y-65136100D02*
X151879000Y-66274000D01*
X151879000Y-66274000D02*
X163772000Y-66274000D01*
X142052000Y-65113400D02*
X143242000Y-66304000D01*
X124963000Y-66304000D02*
X126088000Y-66304000D01*
X87783300Y-66304000D02*
X88962200Y-65125100D01*
X126088000Y-66304000D02*
X127279000Y-65113400D01*
X144367600Y-66304000D02*
X145493000Y-66304000D01*
X145493000Y-66304000D02*
X146661000Y-65136100D01*
X86153800Y-66304000D02*
X87783300Y-66304000D01*
X105558400Y-66304000D02*
X107188000Y-66304000D01*
X143242000Y-66304000D02*
X144367600Y-66304000D01*
X127279000Y-65113400D02*
X142052000Y-65113400D01*
X146661000Y-65136100D02*
X150741000Y-65136100D01*
X111485000Y-66304000D02*
X124963000Y-66304000D01*
X92486400Y-65125100D02*
X93665300Y-66304000D01*
X163772000Y-66274000D02*
X163772200Y-66274000D01*
X110358000Y-65177400D02*
X111485000Y-66304000D01*
X93665300Y-66304000D02*
X105558400Y-66304000D01*
X108314000Y-65177400D02*
X110358000Y-65177400D01*
%TO.N,D_{4}*%
X110358000Y-67717400D02*
X108314000Y-67717400D01*
X105558400Y-68844000D02*
X92080200Y-68844000D01*
X126288000Y-68844000D02*
X127438000Y-67694500D01*
X183176800Y-68814000D02*
X183177000Y-68814000D01*
X182052000Y-68814000D02*
X183176800Y-68814000D01*
X142093000Y-67694500D02*
X143242000Y-68844000D01*
X165402000Y-68814000D02*
X166592000Y-67623400D01*
X108314000Y-67717400D02*
X107188000Y-68844000D01*
X180861000Y-67623400D02*
X182052000Y-68814000D01*
X107188000Y-68844000D02*
X105558400Y-68844000D01*
X162616000Y-68844800D02*
X162647000Y-68814000D01*
X150582000Y-68844800D02*
X162616000Y-68844800D01*
X166592000Y-67623400D02*
X180861000Y-67623400D01*
X124963000Y-68844000D02*
X123838000Y-68844000D01*
X92080200Y-68844000D02*
X90953600Y-67717400D01*
X127438000Y-67694500D02*
X142093000Y-67694500D01*
X144367600Y-68844000D02*
X145493000Y-68844000D01*
X149480000Y-69946300D02*
X150582000Y-68844800D01*
X163772200Y-68814000D02*
X165402000Y-68814000D01*
X87783300Y-68844000D02*
X86153800Y-68844000D01*
X88909900Y-67717400D02*
X87783300Y-68844000D01*
X123838000Y-68844000D02*
X123838000Y-68843900D01*
X124963000Y-68844000D02*
X126288000Y-68844000D01*
X146595000Y-69946300D02*
X149480000Y-69946300D01*
X90953600Y-67717400D02*
X88909900Y-67717400D01*
X145493000Y-68844000D02*
X146595000Y-69946300D01*
X123838000Y-68843900D02*
X111485000Y-68843900D01*
X162647000Y-68814000D02*
X163772200Y-68814000D01*
X111485000Y-68843900D02*
X110358000Y-67717400D01*
X143242000Y-68844000D02*
X144367600Y-68844000D01*
%TO.N,D_{3}*%
X143242000Y-71384000D02*
X142115000Y-70256200D01*
X142115000Y-70256200D02*
X127720000Y-70256200D01*
X113070000Y-71384000D02*
X124963000Y-71384000D01*
X111889000Y-70203300D02*
X113070000Y-71384000D01*
X161517000Y-72484300D02*
X146593000Y-72484300D01*
X103261000Y-72556300D02*
X104433000Y-71384000D01*
X162647000Y-71354000D02*
X161517000Y-72484300D01*
X107188000Y-71384000D02*
X108369000Y-70203300D01*
X146593000Y-72484300D02*
X145493000Y-71384000D01*
X105558400Y-71384000D02*
X107188000Y-71384000D01*
X127720000Y-70256200D02*
X126592000Y-71384000D01*
X126592000Y-71384000D02*
X124963000Y-71384000D01*
X144367600Y-71384000D02*
X143242000Y-71384000D01*
X87278900Y-71384000D02*
X88451200Y-72556300D01*
X104433000Y-71384000D02*
X105558400Y-71384000D01*
X108369000Y-70203300D02*
X111889000Y-70203300D01*
X88451200Y-72556300D02*
X103261000Y-72556300D01*
X145493000Y-71384000D02*
X144367600Y-71384000D01*
X163772000Y-71354000D02*
X162647000Y-71354000D01*
X163772200Y-71354000D02*
X163772000Y-71354000D01*
X86153800Y-71384000D02*
X87278900Y-71384000D01*
%TO.N,D_{2}*%
X126868000Y-69978300D02*
X112619000Y-69978300D01*
X150352000Y-68119700D02*
X149657000Y-68814000D01*
X129127600Y-68844000D02*
X128002000Y-68844000D01*
X91443500Y-68844000D02*
X92634100Y-70034600D01*
X90318400Y-68844000D02*
X91443500Y-68844000D01*
X108598000Y-68844000D02*
X109723000Y-68844000D01*
X149657000Y-68814000D02*
X148532200Y-68814000D01*
X112619000Y-69978300D02*
X111935000Y-69294000D01*
X111935000Y-69294000D02*
X111298000Y-69294000D01*
X111298000Y-69294000D02*
X110848000Y-68844000D01*
X110848000Y-68844000D02*
X109723000Y-68844000D01*
X92634100Y-70034600D02*
X107407000Y-70034600D01*
X161650000Y-68119700D02*
X150352000Y-68119700D01*
X107407000Y-70034600D02*
X108598000Y-68844000D01*
X128002000Y-68844000D02*
X126868000Y-69978300D01*
X129128000Y-68844000D02*
X129127600Y-68844000D01*
X148532200Y-68814000D02*
X148532000Y-68814000D01*
%TO.N,D_{1}*%
X148532200Y-66274000D02*
X148532000Y-66274000D01*
X92579600Y-67440100D02*
X91443500Y-66304000D01*
X149657000Y-66274000D02*
X148532200Y-66274000D01*
X107462000Y-67440100D02*
X92579600Y-67440100D01*
X88002700Y-67494600D02*
X73229500Y-67494600D01*
X108598000Y-66304000D02*
X107462000Y-67440100D01*
X165621000Y-67464600D02*
X162021000Y-67464600D01*
X161951000Y-67394600D02*
X150778000Y-67394600D01*
X91443500Y-66304000D02*
X90318400Y-66304000D01*
X129128000Y-66304000D02*
X129127600Y-66304000D01*
X89193300Y-66304000D02*
X88002700Y-67494600D01*
X127498000Y-66304000D02*
X126362000Y-67440100D01*
X73229500Y-67494600D02*
X72038900Y-66304000D01*
X167937000Y-66274000D02*
X167936800Y-66274000D01*
X162021000Y-67464600D02*
X161951000Y-67394600D01*
X126362000Y-67440100D02*
X111984000Y-67440100D01*
X90318400Y-66304000D02*
X89193300Y-66304000D01*
X129127600Y-66304000D02*
X127498000Y-66304000D01*
X150778000Y-67394600D02*
X149657000Y-66274000D01*
X110848000Y-66304000D02*
X109723000Y-66304000D01*
X111984000Y-67440100D02*
X110848000Y-66304000D01*
X166812000Y-66274000D02*
X165621000Y-67464600D01*
X72038900Y-66304000D02*
X70913800Y-66304000D01*
X167936800Y-66274000D02*
X166812000Y-66274000D01*
X109723000Y-66304000D02*
X108598000Y-66304000D01*
%TO.N,D_{0}*%
X93216200Y-64900100D02*
X107462000Y-64900100D01*
X167936800Y-63734000D02*
X166812000Y-63734000D01*
X73229500Y-64954600D02*
X72038900Y-63764000D01*
X167937000Y-63734000D02*
X167936800Y-63734000D01*
X150294000Y-63734000D02*
X148532200Y-63734000D01*
X110848000Y-63764000D02*
X111984000Y-64900100D01*
X107462000Y-64900100D02*
X108598000Y-63764000D01*
X91443500Y-63764000D02*
X91893500Y-64214000D01*
X151430000Y-64870100D02*
X150294000Y-63734000D01*
X72038900Y-63764000D02*
X70913800Y-63764000D01*
X92530100Y-64214000D02*
X93216200Y-64900100D01*
X108598000Y-63764000D02*
X109723000Y-63764000D01*
X90318400Y-63764000D02*
X91443500Y-63764000D01*
X165676000Y-64870100D02*
X151430000Y-64870100D01*
X127498000Y-63764000D02*
X129127600Y-63764000D01*
X88002700Y-64954600D02*
X73229500Y-64954600D01*
X129127600Y-63764000D02*
X129128000Y-63764000D01*
X91893500Y-64214000D02*
X92530100Y-64214000D01*
X126362000Y-64900100D02*
X127498000Y-63764000D01*
X89193300Y-63764000D02*
X88002700Y-64954600D01*
X90318400Y-63764000D02*
X89193300Y-63764000D01*
X148532200Y-63734000D02*
X148532000Y-63734000D01*
X111984000Y-64900100D02*
X126362000Y-64900100D01*
X109723000Y-63764000D02*
X110848000Y-63764000D01*
X166812000Y-63734000D02*
X165676000Y-64870100D01*
%TO.N,~{CE}*%
X86153800Y-58684000D02*
X87783300Y-58684000D01*
X124728000Y-58684000D02*
X125178000Y-58233800D01*
X87783300Y-58684000D02*
X88917100Y-57550200D01*
X105558400Y-58684000D02*
X106684000Y-58684000D01*
X124728000Y-58684000D02*
X118653000Y-58684000D01*
X142069000Y-57510300D02*
X143242000Y-58684000D01*
X124963000Y-58684000D02*
X124728000Y-58684000D01*
X91268500Y-57550200D02*
X92402300Y-58684000D01*
X71675800Y-99976900D02*
X72526700Y-99976900D01*
X88917100Y-57550200D02*
X91268500Y-57550200D01*
X144367600Y-58684000D02*
X144368000Y-58684000D01*
X127766000Y-57510300D02*
X142069000Y-57510300D01*
X125178000Y-58233800D02*
X127043000Y-58233800D01*
X71675800Y-101102000D02*
X71675800Y-99976900D01*
X107874000Y-57493400D02*
X111153000Y-57493400D01*
X72526700Y-99976900D02*
X73284900Y-99218700D01*
X111153000Y-57493400D02*
X112343000Y-58684000D01*
X127043000Y-58233800D02*
X127766000Y-57510300D01*
X161954000Y-57961300D02*
X162647000Y-58654000D01*
X112343000Y-58684000D02*
X118653000Y-58684000D01*
X118653000Y-58684000D02*
X124728000Y-58684000D01*
X163772200Y-58654000D02*
X163772000Y-58654000D01*
X150064000Y-57961300D02*
X161954000Y-57961300D01*
X162647000Y-58654000D02*
X163772000Y-58654000D01*
X106684000Y-58684000D02*
X107874000Y-57493400D01*
X143242000Y-58684000D02*
X144367600Y-58684000D01*
X92402300Y-58684000D02*
X105558400Y-58684000D01*
%TO.N,~{PGM}*%
X75340900Y-101102000D02*
X75340900Y-100821000D01*
X93265800Y-86185200D02*
X93265800Y-85460900D01*
X93265800Y-85460900D02*
X104392000Y-74335200D01*
X104392000Y-74335200D02*
X113434000Y-74335200D01*
X76184600Y-99976900D02*
X79474100Y-99976900D01*
X75340900Y-100821000D02*
X76184600Y-99976900D01*
X79474100Y-99976900D02*
X93265800Y-86185200D01*
X74215800Y-101102000D02*
X75340900Y-101102000D01*
%TO.N,~{OE}*%
X182052000Y-53574000D02*
X183176800Y-53574000D01*
X180859000Y-54766500D02*
X182052000Y-53574000D01*
X126088000Y-53604000D02*
X127265000Y-52426700D01*
X124963000Y-53604000D02*
X126088000Y-53604000D01*
X146655000Y-54766500D02*
X180859000Y-54766500D01*
X142065000Y-52426700D02*
X143242000Y-53604000D01*
X111918000Y-52452600D02*
X113070000Y-53604000D01*
X105558000Y-53604000D02*
X105558400Y-53604000D01*
X145493000Y-53604000D02*
X146655000Y-54766500D01*
X183176800Y-53574000D02*
X183177000Y-53574000D01*
X105558400Y-53604000D02*
X106684000Y-53604000D01*
X106684000Y-53604000D02*
X107835000Y-52452600D01*
X143242000Y-53604000D02*
X144367600Y-53604000D01*
X107835000Y-52452600D02*
X111918000Y-52452600D01*
X127265000Y-52426700D02*
X142065000Y-52426700D01*
X113070000Y-53604000D02*
X124963000Y-53604000D01*
X144367600Y-53604000D02*
X145493000Y-53604000D01*
%TO.N,VCC*%
X70479700Y-100780000D02*
X57338900Y-87638900D01*
X59892700Y-69466100D02*
X66097800Y-63261000D01*
X91511800Y-102148500D02*
X91365200Y-102295000D01*
X71192500Y-102295000D02*
X70479700Y-101582000D01*
X102537200Y-99771900D02*
X118160100Y-99771900D01*
X58153000Y-72151000D02*
X58870600Y-72151000D01*
X58870600Y-72151000D02*
X59892700Y-71128900D01*
X100081900Y-102227200D02*
X102537200Y-99771900D01*
X58236600Y-41526100D02*
X56902500Y-42860200D01*
X70479700Y-101582000D02*
X70479700Y-100780000D01*
X91365200Y-102295000D02*
X71192500Y-102295000D01*
X91995800Y-101102000D02*
X91995800Y-101665000D01*
X91511800Y-102148600D02*
X91590400Y-102227200D01*
X63847600Y-41526100D02*
X58236600Y-41526100D01*
X59892700Y-71128900D02*
X59892700Y-69466100D01*
X57338900Y-72965100D02*
X58153000Y-72151000D01*
X56902500Y-42860200D02*
X56902500Y-70900500D01*
X91511800Y-102148500D02*
X91511800Y-102148600D01*
X91590400Y-102227200D02*
X100081900Y-102227200D01*
X56902500Y-70900500D02*
X58153000Y-72151000D01*
X57338900Y-87638900D02*
X57338900Y-72965100D01*
X64972700Y-40401000D02*
X63847600Y-41526100D01*
X118160100Y-99771900D02*
X120904000Y-97028000D01*
X91995800Y-101665000D02*
X91511800Y-102148500D01*
X66097800Y-40401000D02*
X64972700Y-40401000D01*
%TO.N,V_{PP}*%
X129127600Y-38364000D02*
X128002000Y-38364000D01*
X183177000Y-50190100D02*
X183176800Y-50190300D01*
X178623000Y-37238900D02*
X184303000Y-42919500D01*
X183177000Y-49908900D02*
X183177000Y-50190100D01*
X92568600Y-39489100D02*
X91443500Y-38364000D01*
X129127600Y-38364000D02*
X130253000Y-38364000D01*
X107473000Y-39489100D02*
X92568600Y-39489100D01*
X131378000Y-37238900D02*
X178623000Y-37238900D01*
X183177000Y-50190100D02*
X183177000Y-50471400D01*
X128002000Y-38364000D02*
X126877000Y-37238900D01*
X130253000Y-38364000D02*
X131378000Y-37238900D01*
X109723000Y-38364000D02*
X108598000Y-38364000D01*
X183458000Y-49908900D02*
X183177000Y-49908900D01*
X110848000Y-38364000D02*
X109723000Y-38364000D01*
X184303000Y-42919500D02*
X184303000Y-49063600D01*
X91443500Y-38364000D02*
X90318400Y-38364000D01*
X184303000Y-49063600D02*
X183458000Y-49908900D01*
X108598000Y-38364000D02*
X107473000Y-39489100D01*
X183176800Y-50190300D02*
X183176800Y-51034000D01*
X126877000Y-37238900D02*
X111973000Y-37238900D01*
X111973000Y-37238900D02*
X110848000Y-38364000D01*
%TO.N,~{OE}{slash}V_{PP}*%
X110362100Y-84494100D02*
X115276000Y-89408000D01*
X100726800Y-84494100D02*
X110362100Y-84494100D01*
%TO.N,V_{CC\u002C EPROM}*%
X183177000Y-43414000D02*
X183176800Y-43414000D01*
X104433000Y-38364000D02*
X103308000Y-37238800D01*
X183176800Y-43414000D02*
X182052000Y-43414000D01*
X144368000Y-38364000D02*
X144367600Y-38364000D01*
X126088000Y-38364000D02*
X124963000Y-38364000D01*
X164897000Y-43414000D02*
X163772200Y-43414000D01*
X127213000Y-39489200D02*
X126088000Y-38364000D01*
X87278900Y-38364000D02*
X86153800Y-38364000D01*
X142117000Y-39489200D02*
X127213000Y-39489200D01*
X180926000Y-44539200D02*
X166022000Y-44539200D01*
X105558000Y-38364000D02*
X104433000Y-38364000D01*
X143242000Y-38364000D02*
X142117000Y-39489200D01*
X144367600Y-38364000D02*
X143242000Y-38364000D01*
X103308000Y-37238800D02*
X88404100Y-37238800D01*
X105558400Y-38364000D02*
X105558000Y-38364000D01*
X163772200Y-43414000D02*
X163772000Y-43414000D01*
X88404100Y-37238800D02*
X87278900Y-38364000D01*
X166022000Y-44539200D02*
X164897000Y-43414000D01*
X182052000Y-43414000D02*
X180926000Y-44539200D01*
%TO.N,V_{PP\u002CSUPPLY}*%
X183986000Y-86231300D02*
X189699000Y-80518000D01*
X180340000Y-86231300D02*
X129160700Y-86231300D01*
X125984000Y-81280000D02*
X129160700Y-84456700D01*
X129160700Y-86231300D02*
X125984000Y-89408000D01*
X180340000Y-86231300D02*
X183986000Y-86231300D01*
X189699000Y-80518000D02*
X192024000Y-80518000D01*
X129160700Y-84456700D02*
X129160700Y-86231300D01*
%TO.N,A_{14}*%
X60745000Y-39258900D02*
X68220900Y-39258900D01*
X83882400Y-39757700D02*
X85028700Y-40904000D01*
X68719700Y-39757700D02*
X83882400Y-39757700D01*
X58477800Y-40401000D02*
X59602900Y-40401000D01*
X59602900Y-40401000D02*
X60745000Y-39258900D01*
X68220900Y-39258900D02*
X68719700Y-39757700D01*
X85028700Y-40904000D02*
X86153800Y-40904000D01*
%TO.N,A_{13}*%
X60764400Y-44102500D02*
X66973600Y-44102500D01*
X58477800Y-42941000D02*
X59602900Y-42941000D01*
X122704000Y-42309600D02*
X108322000Y-42309600D01*
X105558400Y-43444000D02*
X105558000Y-43444000D01*
X71542200Y-42310600D02*
X72675600Y-43444000D01*
X72675600Y-43444000D02*
X86153800Y-43444000D01*
X59602900Y-42941000D02*
X60764400Y-44102500D01*
X124963000Y-43444000D02*
X123838000Y-43444000D01*
X66973600Y-44102500D02*
X68765500Y-42310600D01*
X123838000Y-43444000D02*
X122704000Y-42309600D01*
X68765500Y-42310600D02*
X71542200Y-42310600D01*
X108322000Y-42309600D02*
X107188000Y-43444000D01*
X107188000Y-43444000D02*
X105558400Y-43444000D01*
%TO.N,A_{12}*%
X127053000Y-40904000D02*
X129127600Y-40904000D01*
X72038900Y-40904000D02*
X73164100Y-42029200D01*
X109723000Y-40904000D02*
X108598000Y-40904000D01*
X73164100Y-42029200D02*
X90318300Y-42029200D01*
X125916000Y-39767600D02*
X127053000Y-40904000D01*
X90318400Y-40904000D02*
X91443500Y-40904000D01*
X90318300Y-42029200D02*
X91443500Y-40904000D01*
X109723000Y-40904000D02*
X110848000Y-40904000D01*
X129127600Y-40904000D02*
X129128000Y-40904000D01*
X111984000Y-39767600D02*
X125916000Y-39767600D01*
X92634100Y-42094600D02*
X91443500Y-40904000D01*
X110848000Y-40904000D02*
X111984000Y-39767600D01*
X108598000Y-40904000D02*
X107407000Y-42094600D01*
X70913800Y-40904000D02*
X72038900Y-40904000D01*
X107407000Y-42094600D02*
X92634100Y-42094600D01*
%TO.N,A_{11}*%
X103308000Y-52189200D02*
X88404100Y-52189200D01*
X70394900Y-52225500D02*
X83867200Y-52225500D01*
X107188000Y-51064000D02*
X105558400Y-51064000D01*
X105558400Y-51064000D02*
X104433000Y-51064000D01*
X87278900Y-51064000D02*
X86153800Y-51064000D01*
X59602900Y-48021000D02*
X60872700Y-49290800D01*
X108365000Y-49886700D02*
X107188000Y-51064000D01*
X58477800Y-48021000D02*
X59602900Y-48021000D01*
X127269000Y-49883300D02*
X126088000Y-51064000D01*
X144367600Y-51064000D02*
X143242000Y-51064000D01*
X67460200Y-49290800D02*
X70394900Y-52225500D01*
X144368000Y-51064000D02*
X144367600Y-51064000D01*
X83867200Y-52225500D02*
X85028700Y-51064000D01*
X104433000Y-51064000D02*
X103308000Y-52189200D01*
X60872700Y-49290800D02*
X67460200Y-49290800D01*
X85028700Y-51064000D02*
X86153800Y-51064000D01*
X111747000Y-51064000D02*
X110570000Y-49886700D01*
X126088000Y-51064000D02*
X124963000Y-51064000D01*
X143242000Y-51064000D02*
X142062000Y-49883300D01*
X124963000Y-51064000D02*
X111747000Y-51064000D01*
X142062000Y-49883300D02*
X127269000Y-49883300D01*
X110570000Y-49886700D02*
X108365000Y-49886700D01*
X88404100Y-52189200D02*
X87278900Y-51064000D01*
%TO.N,A_{10}*%
X59602900Y-50561000D02*
X60728000Y-51686100D01*
X164897000Y-56114000D02*
X163772200Y-56114000D01*
X124963000Y-56144000D02*
X112648000Y-56144000D01*
X146617000Y-57268700D02*
X145493000Y-56144000D01*
X112648000Y-56144000D02*
X111521000Y-55017400D01*
X183177000Y-56114000D02*
X183176800Y-56114000D01*
X149731000Y-57268700D02*
X146617000Y-57268700D01*
X126592000Y-56144000D02*
X124963000Y-56144000D01*
X107457000Y-56144000D02*
X105558400Y-56144000D01*
X88556600Y-56144000D02*
X86153800Y-56144000D01*
X182052000Y-56114000D02*
X180861000Y-57304800D01*
X145493000Y-56144000D02*
X144367600Y-56144000D01*
X105558400Y-56144000D02*
X93243400Y-56144000D01*
X150886000Y-56114000D02*
X149731000Y-57268700D01*
X111521000Y-55017400D02*
X108583000Y-55017400D01*
X144367600Y-56144000D02*
X143242000Y-56144000D01*
X89684300Y-55016300D02*
X88556600Y-56144000D01*
X183176800Y-56114000D02*
X182052000Y-56114000D01*
X66640500Y-51686100D02*
X69683600Y-54729200D01*
X127783000Y-54953400D02*
X126592000Y-56144000D01*
X166088000Y-57304800D02*
X164897000Y-56114000D01*
X180861000Y-57304800D02*
X166088000Y-57304800D01*
X58477800Y-50561000D02*
X59602900Y-50561000D01*
X143242000Y-56144000D02*
X142052000Y-54953400D01*
X85028700Y-56144000D02*
X86153800Y-56144000D01*
X108583000Y-55017400D02*
X107457000Y-56144000D01*
X69683600Y-54729200D02*
X83613900Y-54729200D01*
X83613900Y-54729200D02*
X85028700Y-56144000D01*
X142052000Y-54953400D02*
X127783000Y-54953400D01*
X60728000Y-51686100D02*
X66640500Y-51686100D01*
X93243400Y-56144000D02*
X92115700Y-55016300D01*
X92115700Y-55016300D02*
X89684300Y-55016300D01*
X163772200Y-56114000D02*
X150886000Y-56114000D01*
%TO.N,A_{9}*%
X66720300Y-46895800D02*
X68775900Y-44840200D01*
X106684000Y-48524000D02*
X107810000Y-47397800D01*
X144367600Y-48524000D02*
X145493000Y-48524000D01*
X145493000Y-48524000D02*
X146588000Y-49619100D01*
X75168300Y-48524000D02*
X86153800Y-48524000D01*
X163772000Y-48494000D02*
X163772200Y-48494000D01*
X146588000Y-49619100D02*
X161522000Y-49619100D01*
X62291000Y-46895800D02*
X66720300Y-46895800D01*
X71484500Y-44840200D02*
X75168300Y-48524000D01*
X122565000Y-48524000D02*
X124963000Y-48524000D01*
X142062000Y-47343300D02*
X127269000Y-47343300D01*
X121438000Y-47397800D02*
X122565000Y-48524000D01*
X143242000Y-48524000D02*
X142062000Y-47343300D01*
X107810000Y-47397800D02*
X121438000Y-47397800D01*
X105558400Y-48524000D02*
X106684000Y-48524000D01*
X126088000Y-48524000D02*
X124963000Y-48524000D01*
X68775900Y-44840200D02*
X71484500Y-44840200D01*
X127269000Y-47343300D02*
X126088000Y-48524000D01*
X161522000Y-49619100D02*
X162647000Y-48494000D01*
X162647000Y-48494000D02*
X163772000Y-48494000D01*
X144367600Y-48524000D02*
X143242000Y-48524000D01*
X105558000Y-48524000D02*
X105558400Y-48524000D01*
%TO.N,A_{8}*%
X166088000Y-47144600D02*
X180861000Y-47144600D01*
X87278900Y-45984000D02*
X88469500Y-47174600D01*
X143242000Y-45984000D02*
X144367600Y-45984000D01*
X104433000Y-45984000D02*
X105558400Y-45984000D01*
X105558400Y-45984000D02*
X107699000Y-45984000D01*
X161522000Y-47079100D02*
X162647000Y-45954000D01*
X86153800Y-45984000D02*
X87278900Y-45984000D01*
X183176800Y-45954000D02*
X183177000Y-45954000D01*
X126088000Y-45984000D02*
X127224000Y-44847700D01*
X182052000Y-45954000D02*
X183176800Y-45954000D01*
X144367600Y-45984000D02*
X145493000Y-45984000D01*
X164897000Y-45954000D02*
X166088000Y-47144600D01*
X162647000Y-45954000D02*
X163772200Y-45954000D01*
X145493000Y-45984000D02*
X146588000Y-47079100D01*
X122024000Y-44806700D02*
X123201000Y-45984000D01*
X88469500Y-47174600D02*
X103243000Y-47174600D01*
X146588000Y-47079100D02*
X161522000Y-47079100D01*
X127224000Y-44847700D02*
X142106000Y-44847700D01*
X103243000Y-47174600D02*
X104433000Y-45984000D01*
X180861000Y-47144600D02*
X182052000Y-45954000D01*
X107699000Y-45984000D02*
X108876000Y-44806700D01*
X123201000Y-45984000D02*
X124963000Y-45984000D01*
X142106000Y-44847700D02*
X143242000Y-45984000D01*
X108876000Y-44806700D02*
X122024000Y-44806700D01*
X124963000Y-45984000D02*
X126088000Y-45984000D01*
X163772200Y-45954000D02*
X164897000Y-45954000D01*
%TO.N,A_{7}*%
X147407000Y-43414000D02*
X146245000Y-42251500D01*
X148532200Y-43414000D02*
X147407000Y-43414000D01*
X150782000Y-42288900D02*
X149657000Y-43414000D01*
X122754000Y-44581700D02*
X121616000Y-43444000D01*
X129127600Y-43444000D02*
X127498000Y-43444000D01*
X88065100Y-44572200D02*
X73167100Y-44572200D01*
X165687000Y-42288900D02*
X150782000Y-42288900D01*
X146245000Y-42251500D02*
X131445000Y-42251500D01*
X107407000Y-44634600D02*
X92634100Y-44634600D01*
X90318400Y-43444000D02*
X89193300Y-43444000D01*
X126360000Y-44581700D02*
X122754000Y-44581700D01*
X72038900Y-43444000D02*
X70913800Y-43444000D01*
X121616000Y-43444000D02*
X109723000Y-43444000D01*
X167937000Y-43414000D02*
X167936800Y-43414000D01*
X131445000Y-42251500D02*
X130253000Y-43444000D01*
X127498000Y-43444000D02*
X126360000Y-44581700D01*
X89193300Y-43444000D02*
X88065100Y-44572200D01*
X109723000Y-43444000D02*
X108598000Y-43444000D01*
X91443500Y-43444000D02*
X90318400Y-43444000D01*
X167936800Y-43414000D02*
X166812000Y-43414000D01*
X130253000Y-43444000D02*
X129127600Y-43444000D01*
X166812000Y-43414000D02*
X165687000Y-42288900D01*
X73167100Y-44572200D02*
X72038900Y-43444000D01*
X108598000Y-43444000D02*
X107407000Y-44634600D01*
X92634100Y-44634600D02*
X91443500Y-43444000D01*
X149657000Y-43414000D02*
X148532200Y-43414000D01*
%TO.N,A_{6}*%
X122112000Y-47116500D02*
X120980000Y-45984000D01*
X129127600Y-45984000D02*
X127498000Y-45984000D01*
X126366000Y-47116500D02*
X122112000Y-47116500D01*
X127498000Y-45984000D02*
X126366000Y-47116500D01*
X120980000Y-45984000D02*
X109723000Y-45984000D01*
X129128000Y-45984000D02*
X129127600Y-45984000D01*
%TO.N,A_{5}*%
X91443500Y-48524000D02*
X90318400Y-48524000D01*
X88064800Y-49652500D02*
X73167400Y-49652500D01*
X90318400Y-48524000D02*
X89193300Y-48524000D01*
X127762000Y-48524000D02*
X126571000Y-49714600D01*
X129128000Y-48524000D02*
X129127600Y-48524000D01*
X72038900Y-48524000D02*
X70913800Y-48524000D01*
X109723000Y-48524000D02*
X108598000Y-48524000D01*
X92634100Y-49714600D02*
X91443500Y-48524000D01*
X129127600Y-48524000D02*
X127762000Y-48524000D01*
X112039000Y-49714600D02*
X110848000Y-48524000D01*
X110848000Y-48524000D02*
X109723000Y-48524000D01*
X108598000Y-48524000D02*
X107407000Y-49714600D01*
X126571000Y-49714600D02*
X112039000Y-49714600D01*
X89193300Y-48524000D02*
X88064800Y-49652500D01*
X107407000Y-49714600D02*
X92634100Y-49714600D01*
X73167400Y-49652500D02*
X72038900Y-48524000D01*
%TO.N,A_{4}*%
X167936800Y-51034000D02*
X166812000Y-51034000D01*
X127498000Y-51064000D02*
X126354000Y-52208200D01*
X62471500Y-63398600D02*
X67374900Y-58495200D01*
X129127600Y-51064000D02*
X127498000Y-51064000D01*
X67374900Y-58495200D02*
X67374900Y-57108700D01*
X59602900Y-66071700D02*
X62276000Y-63398600D01*
X59602900Y-66372200D02*
X59602900Y-66071700D01*
X110848000Y-51064000D02*
X109723000Y-51064000D01*
X149657000Y-51034000D02*
X149095000Y-51034000D01*
X62276000Y-63398600D02*
X62471500Y-63398600D01*
X67374900Y-57108700D02*
X68265900Y-56217700D01*
X147901000Y-52227600D02*
X143769000Y-52227600D01*
X165677000Y-52168300D02*
X150792000Y-52168300D01*
X58759200Y-67215900D02*
X59602900Y-66372200D01*
X126354000Y-52208200D02*
X112428000Y-52208200D01*
X167937000Y-51034000D02*
X167936800Y-51034000D01*
X111750000Y-51530200D02*
X111314000Y-51530200D01*
X149095000Y-51034000D02*
X147901000Y-52227600D01*
X142606000Y-51064000D02*
X129127600Y-51064000D01*
X111314000Y-51530200D02*
X110848000Y-51064000D01*
X150792000Y-52168300D02*
X149657000Y-51034000D01*
X166812000Y-51034000D02*
X165677000Y-52168300D01*
X112428000Y-52208200D02*
X111750000Y-51530200D01*
X58477800Y-68341000D02*
X58477800Y-67215900D01*
X143769000Y-52227600D02*
X142606000Y-51064000D01*
X148532200Y-51034000D02*
X149095000Y-51034000D01*
X58477800Y-67215900D02*
X58759200Y-67215900D01*
X148532000Y-51034000D02*
X148532200Y-51034000D01*
%TO.N,A_{3}*%
X126866000Y-54740100D02*
X111984000Y-54740100D01*
X64638600Y-62976300D02*
X69020700Y-58594200D01*
X89193300Y-53604000D02*
X88058900Y-54738400D01*
X108598000Y-53604000D02*
X107462000Y-54740100D01*
X129128000Y-53604000D02*
X129127600Y-53604000D01*
X91443500Y-53604000D02*
X90318400Y-53604000D01*
X109723000Y-53604000D02*
X108598000Y-53604000D01*
X84562500Y-53604000D02*
X70913800Y-53604000D01*
X85696900Y-54738400D02*
X84562500Y-53604000D01*
X64638600Y-63844400D02*
X64638600Y-62976300D01*
X129127600Y-53604000D02*
X128002000Y-53604000D01*
X128002000Y-53604000D02*
X126866000Y-54740100D01*
X107462000Y-54740100D02*
X92579600Y-54740100D01*
X110848000Y-53604000D02*
X109723000Y-53604000D01*
X58477800Y-69755900D02*
X58727100Y-69755900D01*
X92579600Y-54740100D02*
X91443500Y-53604000D01*
X88058900Y-54738400D02*
X85696900Y-54738400D01*
X90318400Y-53604000D02*
X89193300Y-53604000D01*
X111984000Y-54740100D02*
X110848000Y-53604000D01*
X58727100Y-69755900D02*
X64638600Y-63844400D01*
X58477800Y-70881000D02*
X58477800Y-69755900D01*
%TO.N,A_{2}*%
X90318400Y-56144000D02*
X91443500Y-56144000D01*
X126812000Y-57334600D02*
X112039000Y-57334600D01*
X91443500Y-56144000D02*
X92574600Y-57275100D01*
X90318400Y-56144000D02*
X89193300Y-56144000D01*
X73188400Y-57293500D02*
X72038900Y-56144000D01*
X128002000Y-56144000D02*
X126812000Y-57334600D01*
X72038900Y-56144000D02*
X70913800Y-56144000D01*
X68295600Y-57637100D02*
X68295600Y-58495800D01*
X92574600Y-57275100D02*
X106962000Y-57275100D01*
X68295600Y-58495800D02*
X62626900Y-64164500D01*
X112039000Y-57334600D02*
X110848000Y-56144000D01*
X129127600Y-56144000D02*
X128002000Y-56144000D01*
X106962000Y-57275100D02*
X108094000Y-56144000D01*
X110848000Y-56144000D02*
X109723000Y-56144000D01*
X69788700Y-56144000D02*
X68295600Y-57637100D01*
X89193300Y-56144000D02*
X88043800Y-57293500D01*
X88043800Y-57293500D02*
X73188400Y-57293500D01*
X129128000Y-56144000D02*
X129127600Y-56144000D01*
X108094000Y-56144000D02*
X109723000Y-56144000D01*
X70913800Y-56144000D02*
X69788700Y-56144000D01*
%TO.N,A_{1}*%
X70913800Y-59809100D02*
X70913800Y-58684000D01*
X150326000Y-58686400D02*
X151430000Y-59790100D01*
X88688900Y-58684000D02*
X87539400Y-59833500D01*
X69745900Y-61253400D02*
X69745900Y-60743800D01*
X73188400Y-59833500D02*
X72038900Y-58684000D01*
X87539400Y-59833500D02*
X73188400Y-59833500D01*
X148532200Y-58654000D02*
X149657000Y-58654000D01*
X127498000Y-58684000D02*
X129127600Y-58684000D01*
X146933000Y-58654000D02*
X148532200Y-58654000D01*
X149690000Y-58686400D02*
X150326000Y-58686400D01*
X165676000Y-59790100D02*
X166812000Y-58654000D01*
X110848000Y-58684000D02*
X112039000Y-59874600D01*
X70680600Y-59809100D02*
X70913800Y-59809100D01*
X58477800Y-74835900D02*
X58685800Y-74835900D01*
X60792900Y-69512600D02*
X65774500Y-64531000D01*
X112039000Y-59874600D02*
X126308000Y-59874600D01*
X60792900Y-72728800D02*
X60792900Y-69512600D01*
X142606000Y-58684000D02*
X143732000Y-59810600D01*
X66468300Y-64531000D02*
X69745900Y-61253400D01*
X166812000Y-58654000D02*
X167936800Y-58654000D01*
X129127600Y-58684000D02*
X142606000Y-58684000D01*
X69745900Y-60743800D02*
X70680600Y-59809100D01*
X167936800Y-58654000D02*
X167937000Y-58654000D01*
X143732000Y-59810600D02*
X145776000Y-59810600D01*
X90318400Y-58684000D02*
X88688900Y-58684000D01*
X126308000Y-59874600D02*
X127498000Y-58684000D01*
X65774500Y-64531000D02*
X66468300Y-64531000D01*
X145776000Y-59810600D02*
X146933000Y-58654000D01*
X109723000Y-58684000D02*
X110848000Y-58684000D01*
X58685800Y-74835900D02*
X60792900Y-72728800D01*
X72038900Y-58684000D02*
X70913800Y-58684000D01*
X149657000Y-58654000D02*
X149690000Y-58686400D01*
X151430000Y-59790100D02*
X165676000Y-59790100D01*
X58477800Y-75961000D02*
X58477800Y-74835900D01*
%TO.N,A_{0}*%
X91443500Y-61224000D02*
X92579600Y-62360100D01*
X129128000Y-61224000D02*
X129127600Y-61224000D01*
X166812000Y-61194000D02*
X165676000Y-62330100D01*
X58477800Y-77375900D02*
X58710900Y-77375900D01*
X167936800Y-61194000D02*
X166812000Y-61194000D01*
X90318400Y-61224000D02*
X89193300Y-61224000D01*
X65770000Y-67071000D02*
X66462200Y-67071000D01*
X58477800Y-78501000D02*
X58477800Y-77375900D01*
X108598000Y-61224000D02*
X109723000Y-61224000D01*
X69788700Y-63192800D02*
X70632400Y-62349100D01*
X148532200Y-61194000D02*
X148532000Y-61194000D01*
X70632400Y-62349100D02*
X70913800Y-62349100D01*
X150294000Y-61194000D02*
X148532200Y-61194000D01*
X58710900Y-77375900D02*
X61468000Y-74618800D01*
X110848000Y-61224000D02*
X109723000Y-61224000D01*
X70913800Y-62349100D02*
X70913800Y-61224000D01*
X61468000Y-74618800D02*
X61468000Y-71373000D01*
X90318400Y-61224000D02*
X91443500Y-61224000D01*
X107462000Y-62360100D02*
X108598000Y-61224000D01*
X127498000Y-61224000D02*
X126362000Y-62359800D01*
X89193300Y-61224000D02*
X88002700Y-62414600D01*
X111984000Y-62359800D02*
X110848000Y-61224000D01*
X92579600Y-62360100D02*
X107462000Y-62360100D01*
X61468000Y-71373000D02*
X65770000Y-67071000D01*
X167937000Y-61194000D02*
X167936800Y-61194000D01*
X69788700Y-63744500D02*
X69788700Y-63192800D01*
X126362000Y-62359800D02*
X111984000Y-62359800D01*
X165676000Y-62330100D02*
X151430000Y-62330100D01*
X88002700Y-62414600D02*
X73229500Y-62414600D01*
X72038900Y-61224000D02*
X70913800Y-61224000D01*
X129127600Y-61224000D02*
X127498000Y-61224000D01*
X73229500Y-62414600D02*
X72038900Y-61224000D01*
X66462200Y-67071000D02*
X69788700Y-63744500D01*
X151430000Y-62330100D02*
X150294000Y-61194000D01*
%TD*%
M02*
